<svg xmlns="http://www.w3.org/2000/svg" viewBox="0 0 390 844">
  <rect width="390" height="844" fill="#091326"/>
  <image href="../badges/season-01-badge.svg" x="111" y="54" width="168" height="52"/>
  <text x="195" y="154" text-anchor="middle" font-family="Arial, sans-serif" font-size="30" font-weight="700" fill="#f8fbff">LOCAL RANKING</text>
  <rect x="28" y="194" width="334" height="424" rx="10" fill="#10243a" stroke="#1c395c" stroke-width="2"/>
  <text x="54" y="234" font-family="Arial, sans-serif" font-size="12" fill="#8fb9d8">RANK</text>
  <text x="142" y="234" font-family="Arial, sans-serif" font-size="12" fill="#8fb9d8">PLAYER</text>
  <text x="278" y="234" font-family="Arial, sans-serif" font-size="12" fill="#8fb9d8">TIME</text>
  <g font-family="Arial, sans-serif" font-size="16" fill="#f8fbff">
    <text x="62" y="288">#01</text><text x="142" y="288">Player001</text><text x="286" y="288">05:20</text>
    <text x="62" y="346">#02</text><text x="142" y="346">Player002</text><text x="286" y="346">04:44</text>
    <text x="62" y="404">#03</text><text x="142" y="404">YOU</text><text x="286" y="404">03:42</text>
    <text x="62" y="462">#04</text><text x="142" y="462">Player004</text><text x="286" y="462">03:10</text>
    <text x="62" y="520">#05</text><text x="142" y="520">Player005</text><text x="286" y="520">02:58</text>
  </g>
  <rect x="44" y="372" width="302" height="48" rx="8" fill="none" stroke="#50ffd2" stroke-width="2"/>
  <image href="../buttons/button-primary.svg" x="56" y="668" width="278" height="58"/>
  <text x="195" y="705" text-anchor="middle" font-family="Arial, sans-serif" font-size="18" font-weight="700" fill="#07111f">START RUN</text>
</svg>
